<?xml version="1.0" encoding="UTF-8" standalone="no"?>
<!DOCTYPE svg PUBLIC "-//W3C//DTD SVG 1.1//EN" "http://www.w3.org/Graphics/SVG/1.1/DTD/svg11.dtd">
<svg width="100%" height="100%" viewBox="0 0 419 435" version="1.1" xmlns="http://www.w3.org/2000/svg" xmlns:xlink="http://www.w3.org/1999/xlink" xml:space="preserve" xmlns:serif="http://www.serif.com/" style="fill-rule:evenodd;clip-rule:evenodd;stroke-linejoin:round;stroke-miterlimit:2;">
    <path id="Selection" d="M210,2L199,21C195.69,18.78 188.99,11.93 185.09,13.82C182.19,15.23 179.62,20.78 176,21.04C171.79,21.36 167.52,14.07 163,15.32C158.82,16.48 156.12,23.62 151.96,23.1L134,12L137,23C131.63,23 115,21.59 112.61,27.39C111.09,31.07 115.49,39.48 117,43.03L91,43.03L80,41C75.24,51.87 70.93,73.2 84,80L84,82C75.17,84.52 71.5,88.69 64,93C68.27,95.48 83.51,96.75 89,97C81.13,100.45 70.5,102.2 64.1,108.21C60.69,111.42 56.95,118.64 55,123L71,117C63.05,123.16 55.02,128.56 48.09,136C36.29,148.67 26.21,170.49 26,188C25.9,196.53 25.4,206.47 30,214L41,203C34,219.28 28.46,236.2 27,254L46,231C44.19,235.53 38.41,248.01 38.29,252C38.14,256.9 45.89,272.3 48.58,277C55.17,288.52 62.31,297.97 73,306.1L126,335.69C132.58,339.98 142.37,347.64 148,353.04L160,365L160,360C168.31,363.8 173.53,371.87 178.87,379C189.75,393.5 199.95,408.29 209,424L241.13,379C246.47,371.87 251.69,363.8 260,360L260,365L272,353.04C277.63,347.64 287.42,339.98 294,335.69L347,306.1C357.69,297.97 364.83,288.52 371.42,277C374.11,272.3 381.86,256.9 381.71,252C381.59,248.01 375.81,235.53 374,231C380.25,235.69 387.43,247.2 392,254C393.35,249.93 391.49,244.25 390.75,240C388.02,224.32 385.2,217.41 379,203L390,214C393.05,209.02 393.93,202.77 394,197L394,190C393.96,166.05 381.08,142.88 363,127.75C358.07,123.63 354.84,120.86 349,118L365,123C363.25,119.07 359.66,112.15 356.79,109.1C351.45,103.43 338.67,99.18 331,98L356,94C350.46,88.79 343.34,84.09 336,82C349.62,68.04 345.4,57.71 341,41C325.47,43.83 318.41,43 303,43C304.51,39.48 308.91,31.07 307.39,27.39C305,21.59 288.37,23 283,23L287,12L274,20.29L267.04,22.84L257,15.11L244,20.84L233.96,13.18L222.21,18.81L218,14L210,2ZM211,21L219,36C222.42,33.71 230.18,26 233.99,27.25C237.79,28.49 240.03,34.72 244.01,34.47C248,34.21 252.54,26.9 256.83,28.3C260.52,29.5 262.45,35.42 268,37L262,56C249.9,53.83 238.5,54.66 227,59.06C223.13,60.55 212.31,67.34 210,67.19L195,59.45C184.76,55.27 169.79,53.38 159,56L153,37C158.59,35.52 158.91,30.93 163.09,28.74C167.49,26.43 174.43,33.9 177,37C179.21,34.59 184.18,28.14 187,27.3C191.2,26.05 197.67,33.02 200,36L211,21ZM149,59C137.07,55.2 127.96,44.11 123,33C126.95,31.88 136.93,31.33 140.3,33.98C142.03,35.34 142.98,38.94 143.67,41C145.6,46.76 148.08,53.05 149,59ZM297,33C291.06,46.3 283.67,53.22 271,60L276.67,42C277.47,39.6 278.48,35.53 280.51,33.98C284.14,31.21 292.85,31.82 297,33ZM207,36.77C194.46,42.04 198.05,57.37 209,58.77C222.57,60.51 226.81,41.46 215,36.77C212.09,35.77 209.92,36.07 207,36.77ZM213,47L209,49L209,46L213,47ZM105,62L102,70L88,72C83.65,64.01 84.87,60.55 86,52C93.83,53.83 99.02,56.64 105,62ZM334,52C335.39,56.53 337.73,68.02 331.78,70.18L319,70.18L316,61C324.87,55.14 323.79,55.41 334,52ZM122,54C129.32,56.8 137.18,63.78 145,68.14C157.46,75.09 165.78,77.59 179,82C172.33,84.73 165.87,83.83 159,83.17C153.66,82.65 148.12,82.77 143,80.87C134.56,77.73 130.23,70.49 126.22,63C124.64,60.05 122.46,57.33 122,54ZM299,54C295.25,60.7 288.73,72.49 282.91,77.07C275.57,82.85 269.67,82.48 261,83.09L254,83.91L242,83L268,72.22L299,54ZM150,59L150,60L149,59L150,59ZM195,77L161,66C166.89,63.48 182.45,63.73 187.68,67.14C190.53,69 193.33,74.02 195,77ZM259,65C253.99,68.87 232.86,75.44 226,77C231.83,61.78 245.58,63.91 259,65ZM113,69L114,77C111.62,73.86 110.71,72.48 113,69ZM309,69L307,77L307,69L309,69ZM296,78L293,81L296,78ZM161,93C157.4,96.44 153.74,97.41 149,98.62C126.76,104.31 116.9,92.75 97,89C101.79,86.79 112.97,86.21 118,87.63C122.95,89.03 127.02,92.77 137,93.25L149,92.21L161,93ZM323,87.76C319.31,90.16 314.99,90.53 311,92.07L299,97.28C282.75,102.29 274.19,100.44 259,94C268.71,90.02 274.98,93.85 284,93.18C294.8,92.38 296.61,88.99 303,87.76C309.34,86.07 316.64,87.48 323,87.76ZM279,124L273,132L283,130C282.91,132.5 282.58,135.66 283.52,138C286.3,144.94 296.43,147.57 302,152C291.93,159.69 294.77,161.95 291.19,166.41L287.19,170.2L282.63,175.54L276.17,181.17L270,188L265,178C259.65,189.49 261.43,203.6 268.36,214C271.05,218.02 279.17,225.3 279.3,229C279.41,232.4 273.06,242.94 270.97,246C266.96,251.88 257.89,262.78 251,264.83C249.353,265.32 247.422,265.451 247.433,265.288C248.076,255.689 245.646,247.955 245.285,248.391C233.085,263.099 235.892,263.073 233.657,262.168C225.486,258.856 217.322,253.654 213,250L216.54,244.62L223,239.79L232,231L230,229L230,228C234.15,228.71 236.97,229.16 241,227.35C247.05,224.64 258.5,210.75 259.92,204.16C262.03,194.29 251.41,188.37 243,188.04C235.82,187.76 228.46,189.74 222,192.78C219.25,194.08 212.36,198.4 210,198.4C207.58,198.4 201.62,194.54 199,193.26C193.19,190.43 186.5,188.29 180,188.04C177.18,187.93 173.73,188.12 171,188.86C161.76,191.38 157.21,200.55 162.1,209C166.23,216.14 174.38,227.22 183,228.25C185.67,228.89 187.41,228.44 190,228.25L189,230L188,230L196.01,238.9C202.99,245.35 201.28,240.65 207,250C199.2,256.59 179.54,267.84 169,264.84C161.91,262.82 153.11,251.99 149.03,246C146.94,242.94 140.59,232.4 140.7,229C140.87,223.96 147.75,221.34 153.49,211C159.98,199.29 158.26,190.4 156,178L150,188L143.83,181.17L137.37,175.54L132.81,170.2L128.81,166.41C125.23,161.95 128.07,159.69 118,152C123.57,147.57 133.7,144.94 136.48,138C137.42,135.66 137.09,132.5 137,130L147,132L141,124C151.08,120.7 154.05,120.23 161.91,111.99C165.25,108.48 168.61,104.1 171.19,100C172.75,97.5 174.4,93.99 177.21,92.74C179.41,91.75 180.38,91.97 183,92C185.07,92.025 185.293,93.54 183.866,98.696C182.687,102.961 182.063,109.347 181.237,114.813C179.959,123.278 186.63,131.931 187.109,136.891C187.362,139.512 187.818,130.681 192.145,127.233C196.127,124.061 199.001,120.367 199.39,119.92C201.153,117.897 204.041,110.916 205.772,107.888C208.948,102.334 211.599,100.619 212,100.35C216.47,97.35 218.06,94.13 221,93.38C227.18,91.8 228.78,91.99 235,92C237.62,92 241.36,91.76 243.62,93.17L256.29,110C264.49,119.39 267.88,120.36 279,124ZM152,108C148.14,112.37 137.89,116.52 132,115.28C128.47,114.53 125.1,111.49 117,109.66C107.44,107.51 101.56,108 92,108L102,105.13L110,104.18L134,109.57L152,108ZM328,107L309,108.75C305.1,109.39 300.67,110.05 297,111.47L288,115.42C282.22,116.56 271.78,112.27 268,108L284,109.91L310,104.27L328,107ZM120,122L81,130.42L64,135C72.12,126.94 89.11,116.34 101,117.18C106.13,117.55 116.82,117.91 120,122ZM355,135C338.93,131.34 316.71,122.77 300,122C303.18,117.91 313.87,117.55 319,117.18C330.25,116.38 348.27,126.39 355,135ZM136,147L152,145C152.01,147.08 151.91,150.03 152.51,151.99C155.68,162.27 170.88,161.61 174,162.51C179.62,164.12 180.23,167.47 190,169C190.58,164.58 191.28,161.57 190.83,157C189.27,141.1 177.61,125.49 160,129.53C151.72,131.43 141.29,140.59 136,147ZM230,169C239.77,167.47 240.38,164.12 246,162.51C249.12,161.61 264.32,162.27 267.49,151.99C268.09,150.03 267.99,147.08 268,145L284,147C278.71,140.59 268.28,131.43 260,129.53C242.39,125.49 230.73,141.1 229.17,157C228.72,161.57 229.42,164.58 230,169ZM128,133C125.26,138.18 121.86,138.62 117,141.43L105,149.87C102.93,150.47 97.63,149.93 95,149.87C90.94,150.21 86.98,151.25 83,152C89.6,144.94 103.98,139.43 113,135.58C118.69,133.15 121.85,130.71 128,133ZM338,151C333.8,152.19 329.31,150.22 325,149.87C322.37,149.93 317.07,150.47 315,149.87L304,142.02C299.03,139.05 294.81,138.32 292,133C298.12,130.5 301.19,133.07 307,135.4C317.87,139.75 327.81,145.31 338,151ZM179,152C174.38,152 164.78,153.06 162.02,148.72C161.14,147.35 160.52,142.11 160,140C169.89,135.92 177.13,142.21 179,152ZM260,140C259.49,142.09 258.87,147.24 257.98,148.61C255.08,153.03 245.73,152 241,152C242.87,142.21 250.11,135.92 260,140ZM340,140L340,141L339,140L340,140ZM80,141L69.09,151.01L61.59,161.91L49.09,173.09L35,188C37.55,177.66 38.68,166.09 45.11,157.09C50.7,149.27 70.54,142.34 80,141ZM384,187L370,172.01L358.49,161.71C355.25,157.85 352.82,149.49 340,142C344.73,140.45 351.45,143.71 356,145.42C361.08,147.34 368.87,150.52 372.67,154.33C379.16,160.81 383.92,177.88 384,187ZM107,196L109.2,183L112,160C116.51,162.51 117.76,163.68 117.98,169C118.5,181.51 113.2,186.09 107,196ZM314,195C307.72,189.36 302.4,179.56 302.04,171C301.91,167.98 302.72,159.91 307.69,161.45C310.07,162.19 309.96,166.04 310,168C310.31,185.21 311.9,181.35 314,195ZM88,161C84.07,164.57 61.1,178.12 56,180C62.72,171.05 76.88,162.72 88,161ZM333,161C344.35,163.32 357.18,170.57 364,180L332,162L333,161ZM327,169L327,170L326,169L327,169ZM94,170C85.07,184.08 60.61,209.29 46,217C47.87,209.03 56.07,193.74 62.09,188.33C64.99,185.72 74.17,180.49 78,178.2C82.98,175.23 88.46,171.62 94,170ZM328,170C333.48,172.93 354.24,184.79 357.91,188.21C363.99,193.87 371.8,208.84 374,217C362.6,210.99 346.72,194.78 338.05,185C334.97,181.53 328,174.57 328,170ZM321,178C328.31,188.91 336.79,196.82 346,206L355.21,215.17C358.79,219.69 364.93,233.32 366,239C350.21,229.92 334.42,214.34 326.25,198C323.62,192.75 319.34,183.86 321,178ZM100,179C98.09,201.73 73.65,229.37 54,239C54.89,234.27 55.72,233.26 57.58,229C65.76,210.17 69.3,212.28 82.96,198L100,179ZM56,180L56,181L55,180L56,180ZM365,180L365,181L364,180L365,180ZM55,181L55,182L54,181L55,181ZM92,223L108.91,207L122.09,191.38C124.44,189.35 130.86,184.6 134,185.47C137.89,186.56 142.82,193.68 140.89,197.71C139.96,199.64 136.74,201.99 135,203.26C123.73,211.45 105.62,219.89 92,223ZM329,222C324.61,223.19 319.13,220.42 315,218.8C305.57,215.09 287.93,206.91 281.18,199.7C275.31,193.42 283.29,185.59 287,185.24C291.62,184.81 299.8,192.54 302.42,196.02C308.78,204.45 320.25,216.14 329,222ZM385,187L385,188L384,187L385,187ZM315,195L315,196L314,195L315,195ZM213,235L211,220L209,220L207,235C204.65,233.97 202.56,233.11 201.25,230.7C199.67,227.78 201.22,223 197.57,219.43C192.57,214.53 187.55,220.35 182.09,218.13C178.1,216.51 166.84,204.04 170.78,199.6C172.57,197.58 177.48,197.98 180,198C187.32,198.09 193.87,200.03 200,204.1C202.47,205.74 207.56,210.96 210,210.96C212.36,210.96 218.28,205.15 221,203.47C228.3,198.96 234.58,197.85 243,198C260.2,198.32 241.03,216.86 237.91,218.13C232.64,220.28 228.17,215.1 223.22,218.74C218.99,221.86 220.06,227.34 219.13,229.83C218.02,232.81 215.68,233.82 213,235ZM277,208C290.55,219.46 307.26,226.31 324,231.66L346,237.14C349.82,238.63 354.51,242.52 358,245C353.64,246.6 343.81,244.44 339,243.58C321.06,240.34 305.17,236.2 291,224.13C286.61,220.39 277,214.15 277,208ZM144,209C138.9,216.61 137.66,216.76 131.09,222.4L122.99,229.25C112.2,236.68 96.75,240.49 84,243C77.66,244.25 68.34,245.86 62,246L74,237.22L105,228.95L128,218.57L144,209ZM126,239L124.04,264L126.42,291L137,331L111,315.81C96.72,308.67 84.11,304.19 72.04,292.83C63.1,284.42 54.06,268.64 50,257L90,251.58C104.95,248.28 112.25,244.91 126,239ZM295,239C305.14,243.37 307.49,245.29 319,248.57C336.45,253.55 352.29,254.66 370,257C365.94,268.64 356.9,284.42 347.96,292.83C335.89,304.19 323.28,308.67 309,315.81L283,331L287.97,317C292.23,303.61 295.98,284.01 295.92,270L295.92,254C295.42,249.66 294.12,243.16 295,239ZM285,242C286.7,263.04 286.92,283.32 281.87,304C280.81,308.34 277.38,320.56 275.01,323.79C272.73,326.91 268.36,328.49 265,330.31C259.74,333.16 253.64,337.01 250.26,342.04C245.78,348.69 248.46,352.36 246.89,356C246.05,357.94 240.74,363.84 239,366C234.93,371.06 229.55,379.21 225,383C226.15,375.58 230.16,365.53 233.87,359C236.27,354.78 237.34,353.87 239.38,349C243.01,340.4 244.57,328.34 245,319C258.42,314.72 263.7,301.06 261.39,288C260.36,282.21 260.21,276.96 254,275L269.91,261.99L285,242ZM136,243C147.53,258.78 147.97,263.13 166,274C164.51,274.97 162.91,275.84 161.83,277.3C160.39,279.27 159.72,282.61 159.21,285C157.26,294.15 157.5,303.28 163.53,310.99C168.93,317.9 173.82,317.8 175.4,321.27C176.14,322.9 176.01,327.78 176.29,330C176.9,334.98 178.2,341.29 179.86,346C184.15,358.16 193.19,366.78 196,385L181.12,366C179.25,363.62 174.01,358.07 173.11,356C171.54,352.4 174.26,348.33 169.57,342C166.04,337.22 161.12,333.73 156,330.86C153.02,329.19 147.87,327.12 145.81,324.61C143.05,321.24 140.02,309.59 138.87,305C134.43,287.22 133.79,275.15 134,257C134.05,253.2 134.62,246.45 136,243ZM218,265C211.78,267.87 208.36,266.52 202,266C208.57,258.93 210.71,260.17 218,265ZM251,284C252.54,292.59 254.2,303.39 245,308C242.81,303.58 241.07,302.59 237,300C235.74,314 226.66,320.83 213,321C197.48,321.18 184.66,318.26 183,300C178.93,302.59 177.19,303.58 175,308C165.8,303.39 167.46,292.59 169,284L188,280.29L202,275.38L210,276.79L221,275.7L227,279.29C228.139,286.013 240.083,287.604 251,284ZM235,324C233.92,347.49 227.06,348.91 220.06,367L210,396L199.57,365C192.3,347.99 186.02,345.51 186,325L199,329.76C213.5,333.28 222.12,330 235,324ZM163,348L162,355C160.82,351.75 161.15,350.86 163,348ZM258,348L259,355C256.93,352.18 256.75,351.29 258,348ZM197,385L197,386L196,385L197,385ZM190,116C189.565,105.745 192.037,101.011 192.765,99.654C193.281,98.69 193.789,94.826 195.187,92.891C197.125,90.206 197.429,85.788 207.917,81.871C208.302,81.727 213.854,81.61 213.072,85.216C212.814,86.403 200.752,95.953 197.008,105.031C194.197,111.844 192.875,114.706 190,116ZM241,276C238.166,277.347 236.143,276.412 235,273C237.696,268.215 240.156,265.572 242,262C241.43,267.364 241.514,271.704 241,276Z" style="fill-rule:nonzero;"/>
</svg>
